<mxfile host="Electron" modified="2023-10-29T21:04:43.492Z" agent="Mozilla/5.0 (Macintosh; Intel Mac OS X 10_15_7) AppleWebKit/537.36 (KHTML, like Gecko) draw.io/22.0.3 Chrome/114.0.5735.289 Electron/25.8.4 Safari/537.36" etag="iAGT23Oj0Dg376QblJ28" version="22.0.3" type="device">
  <diagram name="Page-1" id="XaGb6TCkapr2E8wi6nP3">
    <mxGraphModel dx="1114" dy="999" grid="1" gridSize="10" guides="1" tooltips="1" connect="1" arrows="1" fold="1" page="1" pageScale="1" pageWidth="850" pageHeight="1100" math="0" shadow="0">
      <root>
        <mxCell id="0" />
        <mxCell id="1" parent="0" />
        <mxCell id="wL2TN6UBxv5y5MQFp7Bn-1" value="FuseAPIServer" style="rounded=0;whiteSpace=wrap;html=1;" vertex="1" parent="1">
          <mxGeometry x="360" y="160" width="120" height="60" as="geometry" />
        </mxCell>
        <mxCell id="wL2TN6UBxv5y5MQFp7Bn-2" value="FuseContext" style="rounded=0;whiteSpace=wrap;html=1;" vertex="1" parent="1">
          <mxGeometry x="40" y="160" width="120" height="60" as="geometry" />
        </mxCell>
        <mxCell id="wL2TN6UBxv5y5MQFp7Bn-3" value="FuseAPIRouter" style="rounded=0;whiteSpace=wrap;html=1;" vertex="1" parent="1">
          <mxGeometry x="210" y="160" width="120" height="60" as="geometry" />
        </mxCell>
        <mxCell id="wL2TN6UBxv5y5MQFp7Bn-4" value="" style="endArrow=diamondThin;endFill=1;endSize=24;html=1;rounded=0;entryX=0.5;entryY=0;entryDx=0;entryDy=0;exitX=0.5;exitY=0;exitDx=0;exitDy=0;edgeStyle=orthogonalEdgeStyle;" edge="1" parent="1" source="wL2TN6UBxv5y5MQFp7Bn-3" target="wL2TN6UBxv5y5MQFp7Bn-2">
          <mxGeometry width="160" relative="1" as="geometry">
            <mxPoint x="250" y="370" as="sourcePoint" />
            <mxPoint x="410" y="370" as="targetPoint" />
            <Array as="points">
              <mxPoint x="270" y="110" />
              <mxPoint x="100" y="110" />
            </Array>
          </mxGeometry>
        </mxCell>
        <mxCell id="wL2TN6UBxv5y5MQFp7Bn-5" value="" style="endArrow=diamondThin;endFill=1;endSize=24;html=1;rounded=0;exitX=0.5;exitY=0;exitDx=0;exitDy=0;entryX=0.5;entryY=0;entryDx=0;entryDy=0;edgeStyle=orthogonalEdgeStyle;" edge="1" parent="1" source="wL2TN6UBxv5y5MQFp7Bn-1" target="wL2TN6UBxv5y5MQFp7Bn-2">
          <mxGeometry width="160" relative="1" as="geometry">
            <mxPoint x="280" y="170" as="sourcePoint" />
            <mxPoint x="360" y="50" as="targetPoint" />
            <Array as="points">
              <mxPoint x="420" y="110" />
              <mxPoint x="100" y="110" />
            </Array>
          </mxGeometry>
        </mxCell>
        <mxCell id="wL2TN6UBxv5y5MQFp7Bn-6" value="FusePlugin" style="rounded=0;whiteSpace=wrap;html=1;" vertex="1" parent="1">
          <mxGeometry x="120" y="380" width="120" height="60" as="geometry" />
        </mxCell>
        <mxCell id="wL2TN6UBxv5y5MQFp7Bn-7" value="" style="endArrow=diamondThin;endFill=0;endSize=24;html=1;rounded=0;entryX=0.5;entryY=1;entryDx=0;entryDy=0;exitX=0;exitY=0.5;exitDx=0;exitDy=0;edgeStyle=orthogonalEdgeStyle;" edge="1" parent="1" source="wL2TN6UBxv5y5MQFp7Bn-6" target="wL2TN6UBxv5y5MQFp7Bn-2">
          <mxGeometry width="160" relative="1" as="geometry">
            <mxPoint x="140" y="500" as="sourcePoint" />
            <mxPoint x="300" y="500" as="targetPoint" />
          </mxGeometry>
        </mxCell>
        <mxCell id="wL2TN6UBxv5y5MQFp7Bn-8" value="FuseAPIPacket" style="rounded=0;whiteSpace=wrap;html=1;" vertex="1" parent="1">
          <mxGeometry x="150" y="260" width="120" height="60" as="geometry" />
        </mxCell>
        <mxCell id="wL2TN6UBxv5y5MQFp7Bn-9" value="FuseAPIResponse" style="rounded=0;whiteSpace=wrap;html=1;" vertex="1" parent="1">
          <mxGeometry x="320" y="260" width="120" height="60" as="geometry" />
        </mxCell>
        <mxCell id="wL2TN6UBxv5y5MQFp7Bn-10" value="" style="endArrow=open;endSize=12;dashed=1;html=1;rounded=0;exitX=0.5;exitY=1;exitDx=0;exitDy=0;entryX=0.5;entryY=0;entryDx=0;entryDy=0;edgeStyle=orthogonalEdgeStyle;" edge="1" parent="1" source="wL2TN6UBxv5y5MQFp7Bn-1" target="wL2TN6UBxv5y5MQFp7Bn-9">
          <mxGeometry width="160" relative="1" as="geometry">
            <mxPoint x="540" y="365" as="sourcePoint" />
            <mxPoint x="330" y="405" as="targetPoint" />
          </mxGeometry>
        </mxCell>
        <mxCell id="wL2TN6UBxv5y5MQFp7Bn-11" value="Creates" style="endArrow=open;endSize=12;dashed=1;html=1;rounded=0;exitX=0.5;exitY=1;exitDx=0;exitDy=0;entryX=0.5;entryY=0;entryDx=0;entryDy=0;edgeStyle=orthogonalEdgeStyle;" edge="1" parent="1" source="wL2TN6UBxv5y5MQFp7Bn-1" target="wL2TN6UBxv5y5MQFp7Bn-8">
          <mxGeometry width="160" relative="1" as="geometry">
            <mxPoint x="550" y="375" as="sourcePoint" />
            <mxPoint x="340" y="415" as="targetPoint" />
          </mxGeometry>
        </mxCell>
        <mxCell id="wL2TN6UBxv5y5MQFp7Bn-12" value="" style="endArrow=open;endSize=12;dashed=1;html=1;rounded=0;exitX=0.5;exitY=0;exitDx=0;exitDy=0;entryX=0.5;entryY=1;entryDx=0;entryDy=0;edgeStyle=orthogonalEdgeStyle;" edge="1" parent="1" source="wL2TN6UBxv5y5MQFp7Bn-6" target="wL2TN6UBxv5y5MQFp7Bn-8">
          <mxGeometry x="-0.4286" y="32" width="160" relative="1" as="geometry">
            <mxPoint x="320" y="480" as="sourcePoint" />
            <mxPoint x="480" y="480" as="targetPoint" />
            <mxPoint x="-30" y="22" as="offset" />
          </mxGeometry>
        </mxCell>
        <mxCell id="wL2TN6UBxv5y5MQFp7Bn-14" value="Use" style="endArrow=open;endSize=12;dashed=1;html=1;rounded=0;exitX=0.5;exitY=0;exitDx=0;exitDy=0;entryX=0.5;entryY=1;entryDx=0;entryDy=0;edgeStyle=orthogonalEdgeStyle;" edge="1" parent="1" source="wL2TN6UBxv5y5MQFp7Bn-6" target="wL2TN6UBxv5y5MQFp7Bn-9">
          <mxGeometry width="160" relative="1" as="geometry">
            <mxPoint x="340" y="470" as="sourcePoint" />
            <mxPoint x="500" y="470" as="targetPoint" />
          </mxGeometry>
        </mxCell>
        <mxCell id="wL2TN6UBxv5y5MQFp7Bn-18" value="APIHandler" style="rounded=0;whiteSpace=wrap;html=1;" vertex="1" parent="1">
          <mxGeometry x="310" y="380" width="120" height="60" as="geometry" />
        </mxCell>
        <mxCell id="wL2TN6UBxv5y5MQFp7Bn-19" value="" style="endArrow=diamondThin;endFill=1;endSize=24;html=1;rounded=0;entryX=1;entryY=0.5;entryDx=0;entryDy=0;exitX=0;exitY=0.5;exitDx=0;exitDy=0;" edge="1" parent="1" source="wL2TN6UBxv5y5MQFp7Bn-18" target="wL2TN6UBxv5y5MQFp7Bn-6">
          <mxGeometry width="160" relative="1" as="geometry">
            <mxPoint x="250" y="550" as="sourcePoint" />
            <mxPoint x="410" y="550" as="targetPoint" />
          </mxGeometry>
        </mxCell>
      </root>
    </mxGraphModel>
  </diagram>
</mxfile>
